<?xml version="1.0" encoding="UTF-8" standalone="no"?>
<!-- Created with Inkscape (http://www.inkscape.org/) -->

<svg
   width="14.816667mm"
   height="14.816667mm"
   viewBox="0 0 14.816667 14.816667"
   version="1.1"
   id="svg5"
   inkscape:version="1.2.2 (b0a8486541, 2022-12-01)"
   sodipodi:docname="check-in-chart-logo.svg"
   inkscape:export-filename="logo-v1.svg"
   inkscape:export-xdpi="300"
   inkscape:export-ydpi="300"
   xmlns:inkscape="http://www.inkscape.org/namespaces/inkscape"
   xmlns:sodipodi="http://sodipodi.sourceforge.net/DTD/sodipodi-0.dtd"
   xmlns="http://www.w3.org/2000/svg"
   xmlns:svg="http://www.w3.org/2000/svg">
  <sodipodi:namedview
     id="namedview7"
     pagecolor="#ffffff"
     bordercolor="#000000"
     borderopacity="0.25"
     inkscape:showpageshadow="2"
     inkscape:pageopacity="0.0"
     inkscape:pagecheckerboard="0"
     inkscape:deskcolor="#d1d1d1"
     inkscape:document-units="px"
     showgrid="false"
     inkscape:zoom="6.4570467"
     inkscape:cx="22.301217"
     inkscape:cy="27.179608"
     inkscape:window-width="1440"
     inkscape:window-height="891"
     inkscape:window-x="0"
     inkscape:window-y="0"
     inkscape:window-maximized="1"
     inkscape:current-layer="layer1" />
  <defs
     id="defs2" />
  <g
     inkscape:label="Layer 1"
     inkscape:groupmode="layer"
     id="layer1"
     transform="translate(-0.1306853,-4.0721106)">
    <g
       id="g17912"
       transform="translate(0.65985183,4.6012774)">
      <path
         id="rect411-1"
         style="fill:#1b5e20;stroke-width:0.264583"
         d="m 2.1166666,7.9374995 h 0.7937501 c 0.2931583,0 0.5291666,0.2360083 0.5291666,0.5291667 v 3.1749998 c 0,0.293158 -0.2360083,0.529167 -0.5291666,0.529167 H 2.1166666 C 1.8235083,12.170833 1.5875,11.934824 1.5875,11.641666 V 8.4666662 c 0,-0.2931584 0.2360083,-0.5291667 0.5291666,-0.5291667 z" />
      <path
         id="rect411-1-8"
         style="fill:#1b5e20;stroke-width:0.324046"
         d="M 5.0270833,5.8208332 H 5.8208334 C 6.1139917,5.8208332 6.35,6.0568415 6.35,6.3499998 v 5.2916662 c 0,0.293159 -0.2360083,0.529167 -0.5291666,0.529167 H 5.0270833 c -0.2931583,0 -0.5291666,-0.236008 -0.5291666,-0.529167 V 6.3499998 c 0,-0.2931583 0.2360083,-0.5291666 0.5291666,-0.5291666 z" />
      <path
         id="rect411-1-8-2"
         style="fill:#1b5e20;stroke-width:0.374176"
         d="M 7.9374999,3.7041667 H 8.73125 c 0.2931583,0 0.5291666,0.2360083 0.5291666,0.5291666 v 7.4083327 c 0,0.293159 -0.2360083,0.529167 -0.5291666,0.529167 H 7.9374999 c -0.2931583,0 -0.5291666,-0.236008 -0.5291666,-0.529167 V 4.2333333 c 0,-0.2931583 0.2360083,-0.5291666 0.5291666,-0.5291666 z" />
      <path
         id="rect411-1-8-2-3"
         style="fill:#1b5e20;stroke-width:0.418341"
         d="m 10.847917,1.5875 h 0.79375 c 0.293158,0 0.529167,0.2360083 0.529167,0.5291666 v 9.5249994 c 0,0.293159 -0.236009,0.529167 -0.529167,0.529167 h -0.79375 c -0.293158,0 -0.529167,-0.236008 -0.529167,-0.529167 V 2.1166666 c 0,-0.2931583 0.236009,-0.5291666 0.529167,-0.5291666 z" />
    </g>
    <rect
       style="fill:none;fill-opacity:1;stroke:#1b5e20;stroke-width:0.987775;stroke-dasharray:none;stroke-opacity:1"
       id="rect1112-7"
       width="13.828892"
       height="13.828892"
       x="0.62457281"
       y="4.5659981"
       rx="0.98777789" />
  </g>
</svg>
